<svg xmlns="http://www.w3.org/2000/svg" version="1.1" xmlns:xlink="http://www.w3.org/1999/xlink" fill="none" width="56" height="14" viewBox="0 0 56 14"><defs><clipPath id="clip_400:1950_kI7G6w"><rect width="56" height="14" rx="2"></rect></clipPath></defs><g clip-path="url(#clip_400:1950_kI7G6w)"><path d="M3.3203125 8.949707L3.3203125 4.1889648L5 4.1889648L5 3.1196289L2.9199219 3.1196289L2.9199219 2.4604492L9.4897461 2.4604492L9.4897461 3.1196289L7.5097656 3.1196289L7.5097656 4.1889648L9.1796875 4.1889648L9.1796875 8.0097656Q9.1796875 8.9106445 8.3398438 8.9106445L7.5097656 8.9106445L7.3291016 8.2709961L8.1298828 8.300293Q8.5302734 8.300293 8.5302734 7.8706055L8.5302734 4.8310547L7.5097656 4.8310547Q7.5097656 5.0996094 7.4804688 5.3388672Q7.9394531 5.9907227 8.3203125 6.5888672L7.9907227 7.0795898Q7.6806641 6.4008789 7.3999023 5.8808594Q7.1289062 7.1992188 6.2792969 8.2709961L5.8105469 7.8510742Q6.8798828 6.5205078 6.9091797 4.8310547L5.5908203 4.8310547Q5.5688477 5.0898438 5.5493164 5.2094727Q6.0693359 5.8808594 6.3696289 6.3300781L6.0400391 6.8208008Q5.7788086 6.3007812 5.4589844 5.7392578Q5.2001953 6.8305664 4.5507812 7.7192383L4.0698242 7.2993164Q4.8999023 6.1811523 4.9902344 4.8310547L3.9697266 4.8310547L3.9697266 8.949707L3.3203125 8.949707ZM1.2695312 8.9106445L0.60058594 8.6103516Q1.4990234 6.7988281 2.109375 5.019043L2.7392578 5.2607422Q2.0703125 7.2089844 1.2695312 8.9106445ZM2.1289062 4.3989258Q1.5087891 3.6689453 0.41015625 2.8706055L0.92041016 2.3701172Q1.9702148 3.1611328 2.6391602 3.9008789L2.1289062 4.3989258ZM5.6005859 4.1889648L6.9091797 4.1889648L6.9091797 3.1196289L5.6005859 3.1196289L5.6005859 4.1889648ZM4.6411133 2.0405273L4.6411133 1.3300781L3.1396484 1.3300781L3.1396484 0.64892578L4.6411133 0.64892578L4.6411133 -0.13964844L5.3393555 -0.13964844L5.3393555 0.64892578L7.0605469 0.64892578L7.0605469 -0.13964844L7.7587891 -0.13964844L7.7587891 0.64892578L9.3408203 0.64892578L9.3408203 1.3300781L7.7587891 1.3300781L7.7587891 2.0307617L7.0605469 2.0307617L7.0605469 1.3300781L5.3393555 1.3300781L5.3393555 2.0405273L4.6411133 2.0405273ZM2.2412109 1.9697266Q1.6503906 1.2202148 0.64941406 0.42919922L1.1694336 -0.068847656Q2.1191406 0.70996094 2.7490234 1.4594727L2.2412109 1.9697266ZM10.620102 8Q10.620102 7.0087891 11.330551 6.2299805Q11.789536 5.7099609 12.880844 4.9604492Q13.730453 4.3500977 13.999008 4.0693359Q14.550766 3.4711914 14.550766 2.7900391Q14.550766 2.140625 14.160141 1.7817383Q13.769516 1.4204102 13.068832 1.4204102Q12.319321 1.4204102 11.940903 1.9208984Q11.508774 2.4091797 11.499008 3.3491211L10.681137 3.3491211Q10.681137 2.1601562 11.350082 1.4399414Q12.009262 0.71972656 13.100571 0.71972656Q14.08934 0.71972656 14.728989 1.2958984Q15.371078 1.8696289 15.371078 2.7998047Q15.371078 3.7202148 14.670395 4.4794922Q14.260239 4.9091797 13.190903 5.6293945Q11.831039 6.5400391 11.630844 7.2700195L15.380844 7.2700195L15.380844 8L10.620102 8ZM19.000473 8.1391602Q17.721176 8.1391602 17.069321 7.0087891Q16.500473 6.0493164 16.500473 4.4306641Q16.500473 2.8095703 17.069321 1.8500977Q17.708969 0.71972656 19.000473 0.71972656Q20.27977 0.71972656 20.929184 1.8500977Q21.500473 2.8095703 21.500473 4.4306641Q21.500473 6.0493164 20.929184 7.0087891Q20.270004 8.1391602 19.000473 8.1391602ZM19.000473 7.440918Q19.959946 7.440918 20.379868 6.4106445Q20.689926 5.6489258 20.689926 4.4306641Q20.689926 3.1904297 20.379868 2.4506836Q19.959946 1.4204102 19.000473 1.4204102Q18.041 1.4204102 17.621078 2.4506836Q17.320786 3.1708984 17.320786 4.4306641Q17.320786 5.6708984 17.621078 6.4106445Q18.041 7.440918 19.000473 7.440918ZM25.000473 8.1391602Q23.721176 8.1391602 23.069321 7.0087891Q22.500473 6.0493164 22.500473 4.4306641Q22.500473 2.8095703 23.069321 1.8500977Q23.708969 0.71972656 25.000473 0.71972656Q26.27977 0.71972656 26.929184 1.8500977Q27.500473 2.8095703 27.500473 4.4306641Q27.500473 6.0493164 26.929184 7.0087891Q26.270004 8.1391602 25.000473 8.1391602ZM25.000473 7.440918Q25.959946 7.440918 26.379868 6.4106445Q26.689926 5.6489258 26.689926 4.4306641Q26.689926 3.1904297 26.379868 2.4506836Q25.959946 1.4204102 25.000473 1.4204102Q24.041 1.4204102 23.621078 2.4506836Q23.320786 3.1708984 23.320786 4.4306641Q23.320786 5.6708984 23.621078 6.4106445Q24.041 7.440918 25.000473 7.440918ZM30.70018 8.9790039L30.170395 8.5102539Q31.149399 7.1210938 31.200668 4.6308594L31.200668 1.1811523L34.660141 1.1811523Q34.64061 0.72949219 34.64061 -0.16894531L35.309555 -0.16894531Q35.309555 0.5 35.338852 1.1811523L36.35936 1.1811523Q36.120102 0.63916016 35.819809 0.18994141L36.410629 0.08984375Q36.669418 0.54882812 36.920883 1.1811523L37.399399 1.1811523L37.399399 1.8500977L35.37059 1.8500977Q35.429184 3.2294922 35.590317 4.4990234Q35.648911 5.0507812 35.739243 5.5097656Q36.300766 4.25 36.588852 2.7094727L37.199203 2.9707031Q36.749985 5.0703125 35.949203 6.5205078Q36.068832 7.0209961 36.2202 7.3994141Q36.549789 8.1904297 36.820786 8.2197266Q37.020981 8.2001953 37.050278 6.4204102L37.641098 6.6889648Q37.619125 8.9204102 36.869614 8.9204102Q36.349594 8.9204102 35.900375 8.090332Q35.70018 7.7509766 35.529282 7.1894531Q34.740707 8.3100586 33.729965 8.9204102L33.300278 8.3710938Q34.479477 7.6899414 35.299789 6.3496094Q35.180161 5.9003906 35.041 5.0703125Q34.789536 3.5810547 34.699203 1.8500977L31.850082 1.8500977L31.850082 4.6308594Q31.789047 7.3505859 30.70018 8.9790039ZM29.12059 8.7495117L28.449203 8.4492188Q29.350082 6.4594727 30.041 4.3305664L30.661118 4.5795898Q29.999496 6.7207031 29.12059 8.7495117ZM32.409164 7.0893555L32.409164 4.1401367L34.350082 4.1401367L34.350082 7.0893555L32.409164 7.0893555ZM32.951157 6.5498047L33.810532 6.5498047L33.810532 4.6796875L32.951157 4.6796875L32.951157 6.5498047ZM32.350571 3.3393555L32.350571 2.7192383L34.330551 2.7192383L34.330551 3.3393555L32.350571 3.3393555ZM29.950668 2.8510742Q29.379379 1.7792969 28.490707 0.60986328L29.079086 0.24121094Q30.019028 1.4912109 30.519516 2.4506836L29.950668 2.8510742ZM38.620087 8Q38.620087 7.0087891 39.330536 6.2299805Q39.78952 5.7099609 40.880829 4.9604492Q41.730438 4.3500977 41.998993 4.0693359Q42.550751 3.4711914 42.550751 2.7900391Q42.550751 2.140625 42.160126 1.7817383Q41.769501 1.4204102 41.068817 1.4204102Q40.319305 1.4204102 39.940887 1.9208984Q39.508759 2.4091797 39.498993 3.3491211L38.681122 3.3491211Q38.681122 2.1601562 39.350067 1.4399414Q40.009247 0.71972656 41.100555 0.71972656Q42.089325 0.71972656 42.728973 1.2958984Q43.371063 1.8696289 43.371063 2.7998047Q43.371063 3.7202148 42.67038 4.4794922Q42.260223 4.9091797 41.190887 5.6293945Q39.831024 6.5400391 39.630829 7.2700195L43.380829 7.2700195L43.380829 8L38.620087 8ZM47.000458 8.1391602Q45.721161 8.1391602 45.069305 7.0087891Q44.500458 6.0493164 44.500458 4.4306641Q44.500458 2.8095703 45.069305 1.8500977Q45.708954 0.71972656 47.000458 0.71972656Q48.279755 0.71972656 48.929169 1.8500977Q49.500458 2.8095703 49.500458 4.4306641Q49.500458 6.0493164 48.929169 7.0087891Q48.269989 8.1391602 47.000458 8.1391602ZM47.000458 7.440918Q47.95993 7.440918 48.379852 6.4106445Q48.689911 5.6489258 48.689911 4.4306641Q48.689911 3.1904297 48.379852 2.4506836Q47.95993 1.4204102 47.000458 1.4204102Q46.040985 1.4204102 45.621063 2.4506836Q45.32077 3.1708984 45.32077 4.4306641Q45.32077 5.6708984 45.621063 6.4106445Q46.040985 7.440918 47.000458 7.440918Z" transform="translate(3, 2.5)" fill="#ff0f23"></path></g><path d="M2 0L54 0C55.104568 0 56 0.89543045 56 2L56 12C56 13.104569 55.104568 14 54 14L2 14C0.89543045 14 0 13.104569 0 12L0 2C0 0.89543045 0.89543045 0 2 0ZM2 0.32999977Q1.3082635 0.32999974 0.81913161 0.81913161Q0.33000001 1.3082631 0.33000001 2L0.32999977 12Q0.32999974 12.691736 0.81913161 13.180868Q1.308264 13.670001 2 13.67L54 13.67Q54.691734 13.670001 55.18087 13.180868Q55.669994 12.691739 55.669998 12L55.669998 2Q55.670002 1.3082602 55.18087 0.81913167Q54.691734 0.32999998 54 0.33000001L2 0.32999977Z" fill-rule="evenodd" fill="#ff0f23" fill-opacity="0.3"></path></svg>