<svg xmlns="http://www.w3.org/2000/svg" version="1.1" xmlns:xlink="http://www.w3.org/1999/xlink" fill="none" width="65" height="24" viewBox="0 0 65 24"><defs><clipPath id="clip_400:4854_heVhRY"><path d="M0 0L35 0Q35.147293 0 35.294403 0.007227262Q35.441521 0.014454524 35.588104 0.028891638Q35.734688 0.043328751 35.880383 0.064940929Q36.026077 0.086553112 36.17054 0.1152883Q36.315002 0.14402349 36.457878 0.17981246Q36.600758 0.21560144 36.741707 0.25835797Q36.882656 0.3011145 37.021339 0.35073557Q37.160019 0.40035665 37.296097 0.45672277Q37.432178 0.51308888 37.565331 0.57606423Q37.698479 0.63903958 37.828381 0.70847243Q37.958282 0.77790529 38.084618 0.8536284Q38.210953 0.92935145 38.33342 1.0111823Q38.455887 1.0930133 38.574192 1.1807548Q38.692497 1.2684964 38.806358 1.3619373Q38.920212 1.4553782 39.02935 1.5542932Q39.138485 1.6532083 39.242638 1.7573593Q39.346786 1.8615103 39.445702 1.9706461Q39.544617 2.079782 39.638062 2.1936402Q39.731503 2.307498 39.819244 2.4258039Q39.906982 2.5441098 39.988815 2.6665783Q40.070648 2.789047 40.14637 2.9153833Q40.222092 3.0417199 40.291527 3.1716199Q40.360958 3.3015194 40.423931 3.4346695Q40.486908 3.5678196 40.543274 3.7038991Q40.59964 3.8399789 40.649261 3.9786606Q40.698883 4.117342 40.741642 4.2582917Q40.784401 4.399241 40.820187 4.5421185Q40.85598 4.6849961 40.884712 4.8294578Q40.913448 4.9739189 40.935062 5.1196165Q40.956673 5.2653141 40.971111 5.4118967Q40.985546 5.5584793 40.992771 5.7055931Q41 5.8527079 41 6L41 14Q41 14.147291 40.992775 14.294406Q40.985546 14.441521 40.971111 14.588103Q40.956673 14.734686 40.935059 14.880383Q40.913448 15.02608 40.884712 15.170542Q40.85598 15.315003 40.82019 15.457881Q40.784401 15.60076 40.741646 15.741709Q40.698887 15.882658 40.649265 16.021339Q40.59964 16.160021 40.543274 16.296101Q40.486908 16.43218 40.423935 16.565331Q40.360958 16.698481 40.291527 16.828381Q40.222092 16.958281 40.14637 17.084616Q40.070648 17.210953 39.988815 17.33342Q39.906982 17.455889 39.819244 17.574196Q39.731503 17.692501 39.638062 17.806358Q39.544617 17.920218 39.445702 18.029354Q39.346786 18.138489 39.242638 18.24264Q39.138485 18.34679 39.02935 18.445705Q38.920212 18.544621 38.806358 18.638063Q38.692497 18.731503 38.574192 18.819244Q38.455887 18.906986 38.33342 18.988815Q38.210953 19.070644 38.084618 19.14637Q37.958282 19.222092 37.828381 19.291527Q37.698479 19.36096 37.565331 19.423935Q37.432178 19.48691 37.296097 19.543276Q37.160019 19.599642 37.021339 19.649263Q36.88266 19.698885 36.741711 19.741642Q36.600761 19.784399 36.457882 19.820187Q36.315002 19.855976 36.17054 19.884712Q36.026077 19.913448 35.880383 19.935061Q35.734688 19.956673 35.588104 19.971111Q35.441521 19.985546 35.294407 19.992773Q35.147293 20 35 20L0 20L0 20L0 0L0 0Z" transform="translate(24, 2)"></path></clipPath></defs><path d="M6 0L24 0L24 0L24 20L24 20L6 20Q5.8527079 20 5.7055931 19.992773Q5.5584793 19.985546 5.4118967 19.971111Q5.2653141 19.956673 5.1196165 19.935061Q4.9739189 19.913448 4.8294573 19.884712Q4.6849957 19.855976 4.5421181 19.820189Q4.399241 19.784401 4.2582917 19.741644Q4.117342 19.698887 3.9786606 19.649263Q3.8399789 19.599642 3.7038991 19.543276Q3.5678196 19.48691 3.4346693 19.423935Q3.3015192 19.360962 3.1716194 19.291529Q3.0417197 19.222095 2.9153833 19.146372Q2.789047 19.070648 2.6665783 18.988817Q2.5441098 18.906986 2.4258039 18.819244Q2.307498 18.731504 2.1936402 18.638065Q2.079782 18.544622 1.9706461 18.445707Q1.8615103 18.346792 1.7573593 18.242641Q1.6532083 18.138491 1.5542933 18.029354Q1.4553782 17.920219 1.3619373 17.80636Q1.2684963 17.692501 1.1807548 17.574196Q1.093013 17.455889 1.0111822 17.33342Q0.92935133 17.210953 0.85362822 17.084616Q0.77790523 16.958281 0.70847237 16.828381Q0.63903952 16.698481 0.57606423 16.565331Q0.51308888 16.43218 0.45672277 16.296101Q0.40035665 16.160021 0.3507356 16.021339Q0.3011145 15.882658 0.25835797 15.74171Q0.21560144 15.60076 0.17981246 15.457881Q0.14402349 15.315003 0.1152883 15.170542Q0.086553112 15.02608 0.064940937 14.880383Q0.043328751 14.734686 0.028891638 14.588104Q0.014454524 14.441521 0.007227262 14.294407Q0 14.147291 0 14L0 6Q0 5.8527079 0.007227262 5.7055931Q0.014454524 5.5584793 0.028891638 5.4118967Q0.043328751 5.2653141 0.064940929 5.1196165Q0.086553112 4.9739189 0.1152883 4.8294573Q0.14402349 4.6849957 0.17981246 4.5421181Q0.21560144 4.399241 0.25835797 4.2582917Q0.3011145 4.117342 0.35073557 3.9786606Q0.40035665 3.8399789 0.45672277 3.7038991Q0.51308888 3.5678196 0.57606423 3.4346693Q0.63903958 3.3015192 0.70847243 3.1716194Q0.77790529 3.0417197 0.8536284 2.9153833Q0.92935145 2.789047 1.0111823 2.6665783Q1.0930133 2.5441098 1.1807548 2.4258039Q1.2684964 2.307498 1.3619373 2.1936402Q1.4553782 2.079782 1.5542932 1.9706461Q1.6532083 1.8615103 1.7573593 1.7573593Q1.8615103 1.6532083 1.9706461 1.5542933Q2.079782 1.4553782 2.1936402 1.3619373Q2.307498 1.2684963 2.4258039 1.1807548Q2.5441098 1.093013 2.6665783 1.0111822Q2.789047 0.92935133 2.9153833 0.85362822Q3.0417199 0.77790523 3.1716199 0.70847237Q3.3015194 0.63903952 3.4346695 0.57606423Q3.5678196 0.51308888 3.7038991 0.45672277Q3.8399789 0.40035665 3.9786606 0.3507356Q4.117342 0.3011145 4.2582917 0.25835797Q4.399241 0.21560144 4.5421185 0.17981246Q4.6849961 0.14402349 4.8294578 0.1152883Q4.9739189 0.086553112 5.1196165 0.064940937Q5.2653141 0.043328751 5.4118967 0.028891638Q5.5584793 0.014454524 5.7055931 0.007227262Q5.8527079 0 6 0Z" transform="translate(0, 2)" fill="#ffffff"></path><path d="M-0.60000002 0C-0.60000002 -0.078793168 -0.58448052 -0.15681475 -0.55432773 -0.22961015C-0.52417481 -0.30240542 -0.4799791 -0.36854899 -0.42426389 -0.42426407C-0.3685492 -0.47997892 -0.30240566 -0.52417457 -0.22961032 -0.55432761C-0.15681496 -0.58448052 -0.078793347 -0.5999999 0 -0.60000002C0.078793168 -0.60000002 0.15681475 -0.58448052 0.22961015 -0.55432773C0.30240512 -0.52417505 0.36854869 -0.4799794 0.42426383 -0.42426431C0.47997916 -0.36854911 0.52417481 -0.30240566 0.55432761 -0.22961026C0.58448064 -0.15681463 0.60000002 -0.078792989 0.60000002 0L0.60000002 10C0.60000002 10.078794 0.58448052 10.156815 0.55432773 10.22961C0.52417481 10.302405 0.4799791 10.368549 0.42426389 10.424264C0.3685492 10.479979 0.30240566 10.524175 0.22961032 10.554328C0.15681496 10.58448 0.078793347 10.6 0 10.6C-0.078793168 10.6 -0.15681475 10.58448 -0.22961015 10.554328C-0.30240512 10.524175 -0.36854869 10.47998 -0.42426383 10.424264C-0.47997916 10.368549 -0.52417481 10.302405 -0.55432761 10.22961C-0.58448064 10.156815 -0.60000002 10.078793 -0.60000002 10L-0.60000002 0Z" fill-rule="evenodd" transform="translate(12, 7)" fill="#ff0f23"></path><path d="M2 0.60000002C1.9212068 0.60000002 1.8431852 0.58448052 1.7703898 0.55432773C1.6975946 0.52417481 1.631451 0.4799791 1.5757359 0.42426389C1.5200211 0.3685492 1.4758254 0.30240566 1.4456724 0.22961032C1.4155195 0.15681496 1.4000001 0.078793347 1.4 0C1.4 -0.078793168 1.4155195 -0.15681475 1.4456723 -0.22961015C1.475825 -0.30240512 1.5200206 -0.36854869 1.5757357 -0.42426383C1.6314509 -0.47997916 1.6975944 -0.52417481 1.7703898 -0.55432761C1.8431854 -0.58448064 1.921207 -0.60000002 2 -0.60000002L12 -0.60000002C12.078794 -0.60000002 12.156815 -0.58448052 12.22961 -0.55432773C12.302405 -0.52417481 12.368549 -0.4799791 12.424264 -0.42426389C12.479979 -0.3685492 12.524175 -0.30240566 12.554328 -0.22961032C12.58448 -0.15681496 12.6 -0.078793347 12.6 0C12.6 0.078793168 12.58448 0.15681475 12.554328 0.22961015C12.524175 0.30240512 12.47998 0.36854869 12.424264 0.42426383C12.368549 0.47997916 12.302405 0.52417481 12.22961 0.55432761C12.156815 0.58448064 12.078793 0.60000002 12 0.60000002L2 0.60000002Z" fill-rule="evenodd" transform="translate(5, 12)" fill="#ff0f23"></path><g clip-path="url(#clip_400:4854_heVhRY)"><path d="M0 0L35 0Q35.147293 0 35.294403 0.007227262Q35.441521 0.014454524 35.588104 0.028891638Q35.734688 0.043328751 35.880383 0.064940929Q36.026077 0.086553112 36.17054 0.1152883Q36.315002 0.14402349 36.457878 0.17981246Q36.600758 0.21560144 36.741707 0.25835797Q36.882656 0.3011145 37.021339 0.35073557Q37.160019 0.40035665 37.296097 0.45672277Q37.432178 0.51308888 37.565331 0.57606423Q37.698479 0.63903958 37.828381 0.70847243Q37.958282 0.77790529 38.084618 0.8536284Q38.210953 0.92935145 38.33342 1.0111823Q38.455887 1.0930133 38.574192 1.1807548Q38.692497 1.2684964 38.806358 1.3619373Q38.920212 1.4553782 39.02935 1.5542932Q39.138485 1.6532083 39.242638 1.7573593Q39.346786 1.8615103 39.445702 1.9706461Q39.544617 2.079782 39.638062 2.1936402Q39.731503 2.307498 39.819244 2.4258039Q39.906982 2.5441098 39.988815 2.6665783Q40.070648 2.789047 40.14637 2.9153833Q40.222092 3.0417199 40.291527 3.1716199Q40.360958 3.3015194 40.423931 3.4346695Q40.486908 3.5678196 40.543274 3.7038991Q40.59964 3.8399789 40.649261 3.9786606Q40.698883 4.117342 40.741642 4.2582917Q40.784401 4.399241 40.820187 4.5421185Q40.85598 4.6849961 40.884712 4.8294578Q40.913448 4.9739189 40.935062 5.1196165Q40.956673 5.2653141 40.971111 5.4118967Q40.985546 5.5584793 40.992771 5.7055931Q41 5.8527079 41 6L41 14Q41 14.147291 40.992775 14.294406Q40.985546 14.441521 40.971111 14.588103Q40.956673 14.734686 40.935059 14.880383Q40.913448 15.02608 40.884712 15.170542Q40.85598 15.315003 40.82019 15.457881Q40.784401 15.60076 40.741646 15.741709Q40.698887 15.882658 40.649265 16.021339Q40.59964 16.160021 40.543274 16.296101Q40.486908 16.43218 40.423935 16.565331Q40.360958 16.698481 40.291527 16.828381Q40.222092 16.958281 40.14637 17.084616Q40.070648 17.210953 39.988815 17.33342Q39.906982 17.455889 39.819244 17.574196Q39.731503 17.692501 39.638062 17.806358Q39.544617 17.920218 39.445702 18.029354Q39.346786 18.138489 39.242638 18.24264Q39.138485 18.34679 39.02935 18.445705Q38.920212 18.544621 38.806358 18.638063Q38.692497 18.731503 38.574192 18.819244Q38.455887 18.906986 38.33342 18.988815Q38.210953 19.070644 38.084618 19.14637Q37.958282 19.222092 37.828381 19.291527Q37.698479 19.36096 37.565331 19.423935Q37.432178 19.48691 37.296097 19.543276Q37.160019 19.599642 37.021339 19.649263Q36.88266 19.698885 36.741711 19.741642Q36.600761 19.784399 36.457882 19.820187Q36.315002 19.855976 36.17054 19.884712Q36.026077 19.913448 35.880383 19.935061Q35.734688 19.956673 35.588104 19.971111Q35.441521 19.985546 35.294407 19.992773Q35.147293 20 35 20L0 20L0 20L0 0L0 0Z" transform="translate(24, 2)" fill="#ff0f23"></path><path d="M1.5926819 11.259766L0.99209595 10.310547Q2.1551819 9.7128906 2.5653381 8.8251953Q2.9725647 7.8408203 3.0194397 6.3027344L3.0194397 2.3681641L3.9569397 2.3681641L3.9569397 6.3027344Q3.9188538 8.3212891 3.3563538 9.5195312Q2.8026428 10.647461 1.5926819 11.259766ZM5.3104553 11.163086Q4.7948303 10.298828 3.7518616 9.2207031L4.4725647 8.5117188Q5.5038147 9.5078125 6.1395569 10.360352L5.3104553 11.163086ZM9.8368225 11.12793Q9.6083069 11.12793 8.8407288 11.104492Q8.3719788 11.092773 8.0965881 11.081055L7.8329163 10.058594Q8.9960022 10.120117 9.6669006 10.120117Q10.302643 10.120117 10.411041 9.2207031Q10.507721 8.3916016 10.542877 2.8955078L7.3641663 2.8955078Q6.8485413 3.9765625 6.1747131 4.8291016L5.6239319 4.1201172L5.6239319 8.2128906L4.6161194 8.2128906L4.6161194 1.6123047L2.3836975 1.6123047L2.3836975 8.2128906L1.3641663 8.2128906L1.3641663 0.56933594L5.6239319 0.56933594L5.6239319 3.7246094Q6.6786194 2.2246094 7.0770569 0.12402344L8.1786194 0.26757812Q8.0350647 1.046875 7.7948303 1.7910156L11.659088 1.7910156Q11.659088 8.1630859 11.480377 9.6396484Q11.298737 11.12793 9.8368225 11.12793ZM9.3329163 9.015625Q9.2831116 8.8369141 9.1864319 8.4765625Q9.1278381 8.2832031 9.1044006 8.1894531Q7.6747131 8.4882812 6.1395569 8.6435547L5.9608459 7.6591797Q6.5350647 7.3720703 7.5692444 3.7832031L8.6004944 4.1318359Q7.9530334 6.0654297 7.2206116 7.5654297Q8.0350647 7.4804688 8.82901 7.2871094Q8.5770569 6.4609375 8.3485413 5.8837891L9.2127991 5.4648438Q9.7401428 6.8447266 10.255768 8.546875L9.3329163 9.015625ZM22.856445 11.306641Q20.697266 9.9648438 18.368164 8.9072266Q18.321289 8.9804688 18.294922 9.0039062Q16.988281 10.418945 14.023438 11.201172L13.375977 10.193359Q16.387695 9.4111328 17.457031 8.2363281Q17.697266 7.9345703 17.875977 7.6357422L13.329102 7.6357422L13.329102 6.53125L18.356445 6.53125Q18.584961 5.7636719 18.631836 4.9345703L18.631836 2.3916016L19.748047 2.3916016L19.748047 4.9345703Q19.712891 5.7753906 19.542969 6.53125L23.875977 6.53125L23.875977 7.6357422L19.170898 7.6357422Q19.124023 7.7324219 19.027344 7.9111328Q18.96875 8.0195312 18.945312 8.0810547Q21.426758 9.1240234 23.635742 10.430664L22.856445 11.306641ZM16.317383 6.1123047Q15.116211 5.2011719 13.879883 4.7089844L14.418945 3.9033203Q15.740234 4.4306641 16.90332 5.2128906L16.317383 6.1123047ZM17.457031 4.4306641Q16.244141 3.5693359 14.960938 3.0654297L15.5 2.2714844Q16.879883 2.7871094 18.042969 3.53125L17.457031 4.4306641ZM22.34082 3.6044922L21.271484 3.3027344Q21.59668 2.6933594 21.860352 1.8408203L13.748047 1.8408203L13.748047 0.78320312L23.023438 0.78320312L23.023438 1.4921875Q22.748047 2.5732422 22.34082 3.6044922Z" transform="translate(32, 6)" fill="#ffffff"></path></g></svg>