<svg xmlns="http://www.w3.org/2000/svg" version="1.1" xmlns:xlink="http://www.w3.org/1999/xlink" fill="none" width="16" height="16" viewBox="0 0 16 16"><rect width="16" height="16" rx="4" fill="#000000" fill-opacity="0.16"></rect><path d="M5 0C5.1110001 0 5.2140002 0.059 5.27 0.155L6.7940001 2.7720001L9.7539997 3.4130001C9.8620005 3.4360001 9.9499998 3.516 9.9849997 3.622C10.019 3.7279999 9.9949999 3.8440001 9.9209995 3.927L7.9029999 6.1849999L8.2080002 9.198C8.2189999 9.3079996 8.1709995 9.4169998 8.0810003 9.4820004C7.9910002 9.5469999 7.8730001 9.5600004 7.7709999 9.5150003L5 8.2939997L2.2290001 9.5150003C2.1270001 9.5600004 2.0090001 9.5469999 1.919 9.4820004C1.829 9.4169998 1.781 9.3079996 1.7920001 9.198L2.0969999 6.1849999L0.079000004 3.927C0.0049999999 3.8440001 -0.018999999 3.7279999 0.015 3.622C0.050000001 3.516 0.138 3.4360001 0.24600001 3.4130001L3.2060001 2.7720001L4.73 0.155C4.7859998 0.059 4.8889999 0 5 0ZM5 0.93300003L3.677 3.2060001C3.6329999 3.2809999 3.559 3.335 3.473 3.3540001L0.903 3.9100001L2.655 5.8709998C2.7130001 5.9359999 2.7420001 6.0229998 2.733 6.1110001L2.4679999 8.7270002L4.8740001 7.6669998C4.954 7.631 5.046 7.631 5.1259999 7.6669998L7.5320001 8.7270002L7.2670002 6.1110001C7.2579999 6.0229998 7.2870002 5.9359999 7.3449998 5.8709998L9.0970001 3.9100001L6.527 3.3540001C6.441 3.335 6.3670001 3.2809999 6.323 3.2060001L5 0.93300003Z" transform="translate(3, 3.021)" fill="#ffffff"></path></svg>