<svg xmlns="http://www.w3.org/2000/svg" version="1.1" xmlns:xlink="http://www.w3.org/1999/xlink" fill="none" width="46" height="14" viewBox="0 0 46 14"><defs><clipPath id="clip_400:1954_nUUtul"><rect width="46" height="14" rx="2"></rect></clipPath></defs><g clip-path="url(#clip_400:1954_nUUtul)"><path d="M0.99121094 9.0107422L0.99121094 1.4912109L1.6894531 1.4912109L1.6894531 9.0107422L0.99121094 9.0107422ZM7.1411133 8.9204102L6.9604492 8.2490234L7.8491211 8.2709961Q8.2910156 8.2709961 8.2910156 7.6801758L8.2910156 1.0102539L4.4311523 1.0102539L4.4311523 0.35107422L8.9892578 0.35107422L8.9892578 7.8803711Q8.9892578 8.9204102 8.0004883 8.9204102L7.1411133 8.9204102ZM2.6611328 7.3994141L2.2094727 6.8305664Q3.3007812 5.980957 3.8305664 4.9799805Q4.3798828 3.859375 4.6191406 1.9990234L5.3808594 1.9990234Q5.2197266 3.1293945 4.9707031 4.0400391Q6.4892578 5.3803711 7.5488281 6.7304688L6.9995117 7.2797852Q6.159668 6.0810547 4.7509766 4.7211914Q4.6289062 5.019043 4.5092773 5.2900391Q3.8598633 6.4912109 2.6611328 7.3994141ZM3.0200195 1.9111328Q2.4707031 0.84912109 1.7993164 0.028808594L2.4609375 -0.25927734Q3.1396484 0.58056641 3.659668 1.5693359L3.0200195 1.9111328ZM15.690903 8.8496094Q14.4702 8.8496094 14.4702 7.5410156L14.4702 6.2006836L12.009262 6.2006836L12.009262 7.050293L11.289047 7.050293L11.289047 1.2202148L14.4702 1.2202148L14.4702 -0.14941406L15.20018 -0.14941406L15.20018 1.2202148L18.439926 1.2202148L18.439926 6.2006836L15.20018 6.2006836L15.20018 7.4311523Q15.20018 8.1708984 15.85936 8.1708984L18.139633 8.1708984Q18.500961 8.1708984 18.68895 8Q18.840317 7.8193359 18.898911 6.8110352L19.580063 7.0405273Q19.489731 8.3295898 19.230942 8.5908203Q18.95018 8.8496094 18.259262 8.8496094L15.690903 8.8496094ZM12.009262 5.5292969L14.4702 5.5292969L14.4702 4.0302734L12.009262 4.0302734L12.009262 5.5292969ZM15.20018 5.5292969L17.729477 5.5292969L17.729477 4.0302734L15.20018 4.0302734L15.20018 5.5292969ZM12.009262 3.3710938L14.4702 3.3710938L14.4702 1.8989258L12.009262 1.8989258L12.009262 3.3710938ZM15.20018 3.3710938L17.729477 3.3710938L17.729477 1.8989258L15.20018 1.8989258L15.20018 3.3710938ZM21.088837 9.0205078L20.549286 8.5297852Q21.350067 7.2700195 21.960419 6.9990234L21.960419 3.9594727L20.53952 3.9594727L20.53952 3.300293L22.629364 3.300293L22.629364 7.050293Q22.729462 7.1308594 22.858856 7.2700195Q23.220184 7.699707 23.610809 7.8999023Q24.060028 8.1098633 24.919403 8.1391602Q25.959442 8.1611328 26.84079 8.1611328Q27.329071 8.1611328 28.339813 8.1391602Q28.359344 8.1391602 28.36911 8.1391602Q29.250458 8.1196289 29.570282 8.1000977L29.389618 8.8203125L26.940887 8.8203125Q26.440399 8.8203125 25.329559 8.8007812Q25.248993 8.8007812 25.20993 8.8007812Q24.269989 8.7910156 23.679169 8.6201172Q23.110321 8.4394531 22.648895 7.8901367Q22.460907 7.6411133 22.280243 7.6411133Q21.918915 7.6411133 21.088837 9.0205078ZM23.840302 7.4311523L23.688934 6.8208008Q23.95993 6.7109375 23.95993 6.5205078L23.95993 0.24121094L28.710907 0.24121094L28.710907 3.9204102L24.660614 3.9204102L24.660614 6.6206055Q25.710419 6.4301758 26.630829 6.1591797L26.78952 6.8110352Q25.559052 7.140625 23.840302 7.4311523ZM28.940399 7.3994141Q27.619598 6.0200195 25.549286 4.8188477L25.959442 4.3305664Q26.84079 4.8408203 27.499969 5.3095703Q28.019989 4.8603516 28.478973 4.2988281L28.998993 4.6992188Q28.520477 5.2705078 28.029755 5.7001953Q28.749969 6.269043 29.379852 6.8696289L28.940399 7.3994141ZM24.660614 3.2709961L28.000458 3.2709961L28.000458 2.3798828L24.660614 2.3798828L24.660614 3.2709961ZM22.451141 2.0795898Q21.850555 1.3300781 20.769012 0.4609375L21.259735 -0.010253906Q22.290009 0.80029297 22.971161 1.5595703L22.451141 2.0795898ZM24.660614 1.7792969L28.000458 1.7792969L28.000458 0.890625L24.660614 0.890625L24.660614 1.7792969ZM34.990189 9.0498047L34.550735 8.5200195Q35.978958 7.5288086 36.440384 6.0395508Q36.799271 4.7797852 36.799271 2.8388672L37.460892 2.8388672Q37.460892 3.7592773 37.360794 4.6894531Q38.019974 7.0698242 39.609329 8.4589844L39.130814 9.0107422Q37.829544 7.7412109 37.150833 5.9296875Q37.141068 5.9711914 37.119095 6.0493164Q37.109329 6.1103516 37.099564 6.1494141Q36.640579 7.909668 34.990189 9.0498047ZM31.58931 8.9790039L31.45015 8.3295898Q31.879837 8.3808594 32.209427 8.3808594Q32.600052 8.3808594 32.600052 8.0292969L32.600052 5.6904297L30.559036 5.6904297L30.559036 5.0605469L35.239212 5.0605469L35.239212 5.6904297L33.278763 5.6904297L33.278763 8.1904297Q33.278763 8.9790039 32.438919 8.9790039L31.58931 8.9790039ZM30.959427 8.300293L30.419876 7.9511719Q31.049759 7.1308594 31.310989 6.1689453L31.889603 6.2788086Q31.560013 7.440918 30.959427 8.300293ZM34.518997 7.8193359Q34.230911 6.9697266 33.850052 6.2788086L34.431107 6.0908203Q34.809525 6.8208008 35.080521 7.5703125L34.518997 7.8193359ZM38.679153 4.3598633L38.010208 4.1694336Q38.320267 3.2001953 38.510696 2.050293L36.39888 2.050293Q36.059525 3.3100586 35.500443 4.0888672L34.951126 3.7006836Q35.859329 2.3310547 36.130325 -0.13964844L36.789505 -0.029785156Q36.708939 0.67089844 36.560013 1.4008789L39.199173 1.4008789L39.199173 1.840332Q38.998978 3.1611328 38.679153 4.3598633ZM31.169388 4.2988281L31.169388 3.6689453L34.589798 3.6689453L34.589798 4.2988281L31.169388 4.2988281ZM30.839798 2.8803711L30.839798 2.2602539L32.609818 2.2602539L32.609818 1.3789062L30.490677 1.3789062L30.490677 0.73925781L32.609818 0.73925781L32.609818 -0.16894531L33.29097 -0.16894531L33.29097 0.73925781L35.129349 0.73925781L35.129349 1.3789062L33.29097 1.3789062L33.29097 2.2602539L34.899857 2.2602539L34.899857 2.8803711L30.839798 2.8803711Z" transform="translate(3, 2.5)" fill="#b5691a"></path></g><path d="M2 0L44 0C45.104568 0 46 0.89543045 46 2L46 12C46 13.104569 45.104568 14 44 14L2 14C0.89543045 14 0 13.104569 0 12L0 2C0 0.89543045 0.89543045 0 2 0ZM2 0.32999977Q1.3082635 0.32999974 0.81913161 0.81913161Q0.33000001 1.3082631 0.33000001 2L0.32999977 12Q0.32999974 12.691736 0.81913161 13.180868Q1.308264 13.670001 2 13.67L44 13.67Q44.691742 13.670001 45.18087 13.180868Q45.670002 12.691739 45.669998 12L45.669998 2Q45.669998 1.3082602 45.18087 0.81913167Q44.691738 0.32999998 44 0.33000001L2 0.32999977Z" fill-rule="evenodd" fill="#b5691a" fill-opacity="0.3"></path></svg>