<svg xmlns="http://www.w3.org/2000/svg" version="1.1" xmlns:xlink="http://www.w3.org/1999/xlink" fill="none" width="42" height="14" viewBox="0 0 42 14"><defs><clipPath id="clip_400:1952_kFSCFF"><rect width="42" height="14" rx="2"></rect></clipPath></defs><g clip-path="url(#clip_400:1952_kFSCFF)"><path d="M1.5307617 8L4.1894531 1.6108398L0.33935547 1.6108398L0.33935547 0.85888672L5.0292969 0.85888672L5.0292969 1.5302734L2.3999023 8L1.5307617 8ZM6.3708801 9.0302734L5.91922 8.4394531Q8.1604309 7.2993164 9.1003723 5.7099609Q9.4787903 5.0605469 9.7400208 4.0595703L6.2610168 4.0595703L6.2610168 3.3710938L9.8889465 3.3710938Q10.059845 2.3896484 10.140411 1.0688477L6.5198059 1.0688477L6.5198059 0.37060547L14.420197 0.37060547L14.420197 1.0688477L10.870392 1.0688477Q10.770294 2.440918 10.609161 3.3710938L14.710724 3.3710938L14.710724 4.0595703L11.029083 4.0595703Q12.078888 6.9208984 15.020782 8.4492188L14.569122 9.0302734Q11.490509 7.3505859 10.421173 4.2597656Q10.159943 5.3095703 9.7790833 5.980957Q8.7488098 7.7607422 6.3708801 9.0302734ZM19.200455 9.0205078L18.660904 8.5493164Q19.949966 7.4091797 19.979263 4.8701172L19.979263 3.3588867L20.670181 3.3588867L20.670181 4.8701172Q20.640884 7.699707 19.200455 9.0205078ZM17.139908 8.9692383L17.139908 3.300293Q16.680923 3.9790039 16.080338 4.640625L15.84108 3.8789062Q17.330338 2.0893555 17.979752 -0.16894531L18.660904 0.14111328Q18.350845 1.1396484 17.879654 2.0600586L17.879654 8.9692383L17.139908 8.9692383ZM22.550064 8.9106445L22.550064 3.3295898L23.250748 3.3295898L23.250748 8.9106445L22.550064 8.9106445ZM18.560806 4.1206055L18.160416 3.5102539Q20.169693 2.1088867 21.248795 -0.12011719L21.90065 -0.12011719Q22.82106 1.8696289 25.120865 3.4003906L24.710709 4.0107422Q22.611099 2.609375 21.57106 0.57080078Q20.369888 2.8608398 18.560806 4.1206055ZM27.110596 9.0205078L27.110596 3.3491211Q26.571045 4.1010742 26.019287 4.6894531L25.780029 3.9204102Q27.340088 2.1210938 28.050537 -0.22998047L28.729248 0.080078125Q28.389893 1.1396484 27.840576 2.1699219L27.840576 9.0205078L27.110596 9.0205078ZM31.309814 9.0009766L31.309814 5.2192383L31.190186 5.2192383Q30.189209 7.2993164 28.670654 8.4711914L28.260498 7.8193359Q29.710693 6.8208008 30.599365 5.2192383L28.529053 5.2192383L28.529053 4.5209961L31.309814 4.5209961L31.309814 3.4296875L29.320068 3.4296875L29.320068 0.28027344L34.039307 0.28027344L34.039307 3.4296875L32.030029 3.4296875L32.030029 4.5209961L34.910889 4.5209961L34.910889 5.2192383L32.740479 5.2192383Q33.599854 6.7207031 35.079346 7.8291016L34.620361 8.4589844Q33.131104 7.1601562 32.149658 5.2192383L32.030029 5.2192383L32.030029 9.0009766L31.309814 9.0009766ZM30.030518 2.7412109L33.328857 2.7412109L33.328857 0.97119141L30.030518 0.97119141L30.030518 2.7412109Z" transform="translate(3, 2.5)" fill="#b5691a"></path></g><path d="M2 0L40 0C41.104568 0 42 0.89543045 42 2L42 12C42 13.104569 41.104568 14 40 14L2 14C0.89543045 14 0 13.104569 0 12L0 2C0 0.89543045 0.89543045 0 2 0ZM2 0.32999977Q1.3082635 0.32999974 0.81913161 0.81913161Q0.33000001 1.3082631 0.33000001 2L0.32999977 12Q0.32999974 12.691736 0.81913161 13.180868Q1.308264 13.670001 2 13.67L40 13.67Q40.691742 13.670001 41.18087 13.180868Q41.670002 12.691739 41.669998 12L41.669998 2Q41.670002 1.3082602 41.18087 0.81913167Q40.691734 0.32999998 40 0.33000001L2 0.32999977Z" fill-rule="evenodd" fill="#b5691a" fill-opacity="0.3"></path></svg>