<svg xmlns="http://www.w3.org/2000/svg" version="1.1" xmlns:xlink="http://www.w3.org/1999/xlink" fill="none" width="26" height="14" viewBox="0 0 26 14"><defs><clipPath id="clip_400:1942_M5Insk"><rect width="26" height="14" rx="2"></rect></clipPath></defs><g clip-path="url(#clip_400:1942_M5Insk)"><rect width="26" height="14" rx="2" fill="#ff0f23"></rect><path d="M1.5307617 9.0400391L1.5307617 0.88085938L3.6889648 0.88085938Q3.9990234 0.30957031 4.1503906 -0.23974609L5.2099609 -0.090820312Q5.0708008 0.40966797 4.7998047 0.88085938L8.4692383 0.88085938L8.4692383 9.0400391L7.409668 9.0400391L7.409668 8.5004883L2.590332 8.5004883L2.590332 9.0400391L1.5307617 9.0400391ZM2.590332 7.5092773L7.409668 7.5092773L7.409668 6.2006836L2.590332 6.2006836L2.590332 7.5092773ZM2.590332 5.2412109L7.409668 5.2412109L7.409668 4.0107422L2.590332 4.0107422L2.590332 5.2412109ZM2.590332 3.0488281L7.409668 3.0488281L7.409668 1.8793945L2.590332 1.8793945L2.590332 3.0488281ZM11.489243 9.0498047L11.489243 6.059082L18.601059 6.059082L18.601059 9.0498047L17.590317 9.0498047L17.590317 8.6811523L12.50975 8.6811523L12.50975 9.0498047L11.489243 9.0498047ZM12.50975 7.7998047L17.590317 7.7998047L17.590317 6.9208984L12.50975 6.9208984L12.50975 7.7998047ZM12.390121 5.590332L12.390121 3.4003906L17.670883 3.4003906L17.670883 5.590332L12.390121 5.590332ZM13.349594 4.8188477L16.708969 4.8188477L16.708969 4.1791992L13.349594 4.1791992L13.349594 4.8188477ZM10.830063 4.1303711L10.830063 2.0307617L19.169907 2.0307617L19.169907 4.0791016L18.16893 4.0791016L18.16893 2.909668L11.831039 2.909668L11.831039 4.1303711L10.830063 4.1303711ZM12.790512 1.7695312L12.790512 1.2910156L10.659164 1.2910156L10.659164 0.38037109L12.790512 0.38037109L12.790512 -0.20068359L13.830551 -0.20068359L13.830551 0.38037109L16.169418 0.38037109L16.169418 -0.20068359L17.209457 -0.20068359L17.209457 0.38037109L19.340805 0.38037109L19.340805 1.2910156L17.209457 1.2910156L17.209457 1.7695312L16.169418 1.7695312L16.169418 1.2910156L13.830551 1.2910156L13.830551 1.7695312L12.790512 1.7695312Z" transform="translate(3, 2.5)" fill="#ffffff"></path></g></svg>