<svg xmlns="http://www.w3.org/2000/svg" version="1.1" xmlns:xlink="http://www.w3.org/1999/xlink" fill="none" width="14.4" height="14.4" viewBox="0 0 14.4 14.4"><path d="M-0.60000002 0C-0.60000002 -0.078793168 -0.58448052 -0.15681475 -0.55432773 -0.22961015C-0.52417481 -0.30240542 -0.4799791 -0.36854899 -0.42426389 -0.42426407C-0.3685492 -0.47997892 -0.30240566 -0.52417457 -0.22961032 -0.55432761C-0.15681496 -0.58448052 -0.078793347 -0.5999999 0 -0.60000002C0.078793168 -0.60000002 0.15681475 -0.58448052 0.22961015 -0.55432773C0.30240512 -0.52417505 0.36854869 -0.4799794 0.42426383 -0.42426431C0.47997916 -0.36854911 0.52417481 -0.30240566 0.55432761 -0.22961026C0.58448064 -0.15681463 0.60000002 -0.078792989 0.60000002 0L0.60000002 10C0.60000002 10.078794 0.58448052 10.156815 0.55432773 10.22961C0.52417481 10.302405 0.4799791 10.368549 0.42426389 10.424264C0.3685492 10.479979 0.30240566 10.524175 0.22961032 10.554328C0.15681496 10.58448 0.078793347 10.6 0 10.6C-0.078793168 10.6 -0.15681475 10.58448 -0.22961015 10.554328C-0.30240512 10.524175 -0.36854869 10.47998 -0.42426383 10.424264C-0.47997916 10.368549 -0.52417481 10.302405 -0.55432761 10.22961C-0.58448064 10.156815 -0.60000002 10.078793 -0.60000002 10L-0.60000002 0Z" fill-rule="evenodd" transform="translate(7.2, 2.2)" fill="#ff0f23"></path><path d="M2 0.60000002C1.9212068 0.60000002 1.8431852 0.58448052 1.7703898 0.55432773C1.6975946 0.52417481 1.631451 0.4799791 1.5757359 0.42426389C1.5200211 0.3685492 1.4758254 0.30240566 1.4456724 0.22961032C1.4155195 0.15681496 1.4000001 0.078793347 1.4 0C1.4 -0.078793168 1.4155195 -0.15681475 1.4456723 -0.22961015C1.475825 -0.30240512 1.5200206 -0.36854869 1.5757357 -0.42426383C1.6314509 -0.47997916 1.6975944 -0.52417481 1.7703898 -0.55432761C1.8431854 -0.58448064 1.921207 -0.60000002 2 -0.60000002L12 -0.60000002C12.078794 -0.60000002 12.156815 -0.58448052 12.22961 -0.55432773C12.302405 -0.52417481 12.368549 -0.4799791 12.424264 -0.42426389C12.479979 -0.3685492 12.524175 -0.30240566 12.554328 -0.22961032C12.58448 -0.15681496 12.6 -0.078793347 12.6 0C12.6 0.078793168 12.58448 0.15681475 12.554328 0.22961015C12.524175 0.30240512 12.47998 0.36854869 12.424264 0.42426383C12.368549 0.47997916 12.302405 0.52417481 12.22961 0.55432761C12.156815 0.58448064 12.078793 0.60000002 12 0.60000002L2 0.60000002Z" fill-rule="evenodd" transform="translate(0.2, 7.2)" fill="#ff0f23"></path></svg>